#!OML:ASF H:\MichaelJackson\Top Level 1\Subject 1\Session 1\male.ASF
:FULLY-SPECIFIED
:DEGREES
510
root 5.90803 16.3191 -5.21157 -167.272 77.7213 -172.059
lowerback 9.03588 0.439375 -0.745351
upperback 1.5156 0.721408 3.16195
thorax -3.5436 0.419216 3.61931
lowerneck -8.47355 -12.6076 -4.2216
upperneck 11.9087 -16.7597 2.77152
head 5.56153 -8.16479 0.231077
rclavicle -7.7526e-015 5.56597e-015
rhumerus -12.377 43.9846 -71.1106
rradius 118.832
rwrist -21.8612
rhand 25.0299 -12.8246
rfingers 7.12502
rthumb 49.1886 -754.463
lclavicle -7.7526e-015 5.56597e-015
lhumerus -46.8125 -35.1179 118.438
lradius 56.8893
lwrist 6.24405
lhand 6.46364 -0.850364
lfingers 7.12502
lthumb 31.765 26.4024
rfemur -57.8665 6.02951 4.68493
rtibia 57.8645
rfoot 12.1426 8.01181
rtoes -17.393
lfemur -23.9308 -14.9375 -23.1506
ltibia 52.9003
lfoot -26.3714 -1.17711
ltoes 5.05643
511
root 5.96672 16.2874 -5.15555 -168.043 76.4073 -172.918
lowerback 9.15421 0.522619 -0.718044
upperback 1.59823 0.852567 3.37607
thorax -3.53559 0.488577 3.81193
lowerneck -8.32063 -12.8774 -4.43771
upperneck 12.0836 -17.1192 2.90326
head 5.63418 -8.33662 0.268582
rclavicle 6.95746e-015 4.21423e-014
rhumerus -9.60124 41.9555 -69.1551
rradius 121.009
rwrist -27.4629
rhand 27.9175 -13.5236
rfingers 7.12502
rthumb 51.8253 -753.732
lclavicle 6.95746e-015 4.21423e-014
lhumerus -46.544 -34.937 118.443
lradius 57.0057
lwrist 6.49292
lhand 5.64779 -1.22708
lfingers 7.12502
lthumb 30.9876 26.1768
rfemur -57.6022 5.62733 4.18057
rtibia 56.391
rfoot 12.48 8.1006
rtoes -18.128
lfemur -23.9879 -14.2798 -23.2887
ltibia 53.5773
lfoot -26.6901 0.0509378
ltoes 3.79852
512
root 6.02504 16.2519 -5.10027 -168.693 75.0753 -173.721
lowerback 9.22882 0.586354 -0.670043
upperback 1.66754 0.959666 3.58606
thorax -3.51572 0.545763 3.9916
lowerneck -8.16919 -13.133 -4.64105
upperneck 12.2435 -17.4605 3.03047
head 5.70154 -8.49947 0.304551
rclavicle 5.60573e-014 -7.15625e-015
rhumerus -7.02353 39.6445 -67.6231
rradius 123.01
rwrist -32.4975
rhand 30.0326 -14.0088
rfingers 7.12502
rthumb 53.7363 -753.024
lclavicle 5.60573e-014 -7.15625e-015
lhumerus -46.2895 -34.669 118.396
lradius 57.1515
lwrist 6.82495
lhand 4.68514 -1.62149
lfingers 7.12502
lthumb 30.0696 25.9532
rfemur -57.3378 5.16315 3.64834
rtibia 54.9244
rfoot 12.7254 8.24372
rtoes -19.017
lfemur -24.1735 -13.6461 -23.4015
ltibia 54.3304
lfoot -27.024 1.18555
ltoes 2.59832
513
root 6.08282 16.2127 -5.04592 -169.21 73.7197 -174.442
lowerback 9.26978 0.627455 -0.583619
upperback 1.72902 1.04065 3.79454
thorax -3.48318 0.589689 4.15131
lowerneck -8.02459 -13.3745 -4.83334
upperneck 12.3898 -17.7829 3.15048
head 5.76454 -8.6532 0.338189
rclavicle 1.61016e-014 3.81667e-014
rhumerus -4.63515 37.143 -66.5202
rradius 124.832
rwrist -36.831
rhand 31.0831 -14.1278
rfingers 7.12502
rthumb 54.678 -752.497
lclavicle 1.61016e-014 3.81667e-014
lhumerus -46.0534 -34.3236 118.299
lradius 57.3299
lwrist 7.26034
lhand 3.58658 -2.02457
lfingers 7.12502
lthumb 29.0209 25.7356
rfemur -57.0586 4.64901 3.09577
rtibia 53.4674
rfoot 12.8942 8.41587
rtoes -20.0459
lfemur -24.4995 -13.0466 -23.4816
ltibia 55.1912
lfoot -27.3397 2.18714
ltoes 1.45971
514
root 6.14005 16.1701 -4.99251 -169.595 72.339 -175.059
lowerback 9.2937 0.646007 -0.445289
upperback 1.79188 1.09766 4.0059
thorax -3.43733 0.621509 4.2877
lowerneck -7.89109 -13.6038 -5.01652
upperneck 12.522 -18.0883 3.26182
head 5.8237 -8.79892 0.368943
rclavicle -1.33186e-014 -7.95139e-015
rhumerus -2.41133 34.5374 -65.8238
rradius 126.481
rwrist -40.3914
rhand 30.8409 -13.837
rfingers 7.12502
rthumb 54.4613 -752.358
lclavicle -1.33186e-014 -7.95139e-015
lhumerus -45.837 -33.9156 118.16
lradius 57.541
lwrist 7.80939
lhand 2.36699 -2.4323
lfingers 7.12502
lthumb 27.8555 25.5225
rfemur -56.7407 4.10796 2.52998
rtibia 52.0245
rfoot 13.0043 8.59287
rtoes -21.197
lfemur -24.9581 -12.4829 -23.5246
ltibia 56.18
lfoot -27.6069 3.03382
ltoes 0.381373
515
root 6.19692 16.1242 -4.93984 -169.869 70.9372 -175.559
lowerback 9.32252 0.645377 -0.249958
upperback 1.8678 1.13661 4.22501
thorax -3.37847 0.64445 4.40214
lowerneck -7.76966 -13.8238 -5.19208
upperneck 12.637 -18.3801 3.36609
head 5.8784 -8.93833 0.397265
rclavicle 2.3059e-014 -2.70347e-014
rhumerus -0.32183 31.9021 -65.4935
rradius 127.972
rwrist -43.1647
rhand 29.1749 -13.227
rfingers 7.12502
rthumb 52.9636 -752.742
lclavicle 2.3059e-014 -2.70347e-014
lhumerus -45.639 -33.4629 117.986
lradius 57.7831
lwrist 8.47314
lhand 1.04497 -2.84177
lfingers 7.12502
lthumb 26.5909 25.3113
rfemur -56.3554 3.57305 1.95502
rtibia 50.6043
rfoot 13.0741 8.75477
rtoes -22.4433
lfemur -25.5215 -11.9466 -23.5298
ltibia 57.3018
lfoot -27.8057 3.72078
ltoes -0.636955
516
root 6.25381 16.0754 -4.88752 -170.069 69.5249 -175.944
lowerback 9.37977 0.631798 -0.00239023
upperback 1.96933 1.16647 4.45573
thorax -3.30737 0.663414 4.50021
lowerneck -7.65748 -14.0372 -5.36139
upperneck 12.7296 -18.6626 3.46736
head 5.92711 -9.07352 0.424548
rclavicle 2.54444e-014 9.54166e-015
rhumerus 1.66076 29.2975 -65.4808
rradius 129.316
rwrist -45.1839
rhand 26.0881 -12.4949
rfingers 7.12502
rthumb 50.1583 -753.634
lclavicle 2.54444e-014 9.54166e-015
lhumerus -45.4559 -32.984 117.786
lradius 58.0515
lwrist 9.24359
lhand -0.366274 -3.25357
lfingers 7.12502
lthumb 25.2395 25.0971
rfemur -55.8751 3.08326 1.37037
rtibia 49.2206
rfoot 13.1229 8.88861
rtoes -23.74
lfemur -26.1451 -11.4218 -23.5016
ltibia 58.5454
lfoot -27.9321 4.25586
ltoes -1.58606
517
root 6.31123 16.0236 -4.83506 -170.243 68.1177 -176.233
lowerback 9.48602 0.613534 0.283115
upperback 2.10698 1.19802 4.69965
thorax -3.2256 0.684303 4.59035
lowerneck -7.54885 -14.2471 -5.5245
upperneck 12.7946 -18.9406 3.57125
head 5.96792 -9.20664 0.452641
rclavicle -1.82882e-014 -1.90833e-014
rhumerus 3.55487 26.7697 -65.7362
rradius 130.526
rwrist -46.5203
rhand 21.7488 -11.8859
rfingers 7.12502
rthumb 46.1606 -754.913
lclavicle -1.82882e-014 -1.90833e-014
lhumerus -45.2833 -32.4962 117.566
lradius 58.3398
lwrist 10.105
lhand -1.85497 -3.66717
lfingers 7.12502
lthumb 23.8125 24.8771
rfemur -55.282 2.67725 0.771729
rtibia 47.8936
rfoot 13.1725 8.99075
rtoes -25.0267
lfemur -26.7777 -10.8886 -23.4472
ltibia 59.8867
lfoot -27.9986 4.65561
ltoes -2.45238
518
root 6.36977 15.9688 -4.78201 -170.442 66.7357 -176.455
lowerback 9.65504 0.598779 0.584493
upperback 2.28734 1.24103 4.95549
thorax -3.13493 0.712497 4.68258
lowerneck -7.43539 -14.4547 -5.68183
upperneck 12.8295 -19.2167 3.6838
head 5.99941 -9.3388 0.483853
rclavicle -7.27552e-014 6.83819e-014
rhumerus 5.36789 24.3567 -66.2148
rradius 131.61
rwrist -47.2753
rhand 16.4786 -11.6152
rfingers 7.12502
rthumb 41.2416 -756.454
lclavicle -7.27552e-014 6.83819e-014
lhumerus -45.1153 -32.0089 117.328
lradius 58.6389
lwrist 11.0344
lhand -3.40961 -4.08322
lfingers 7.12502
lthumb 22.3208 24.6475
rfemur -54.5727 2.38618 0.152643
rtibia 46.6484
rfoot 13.247 9.06941
rtoes -26.234
lfemur -27.3705 -10.328 -23.3767
ltibia 61.2943
lfoot -28.0323 4.94
ltoes -3.21899
519
root 6.43001 15.9108 -4.72806 -170.709 65.3993 -176.644
lowerback 9.89047 0.595528 0.878385
upperback 2.51185 1.30437 5.21878
thorax -3.03676 0.75274 4.78442
lowerneck -7.30993 -14.6609 -5.83251
upperneck 12.8371 -19.4934 3.81017
head 6.02179 -9.4709 0.519792
rclavicle -6.55989e-014 -2.54444e-014
rhumerus 7.09407 22.0865 -66.8792
rradius 132.574
rwrist -47.5745
rhand 10.6931 -11.8183
rfingers 7.12502
rthumb 35.7834 -758.188
lclavicle -6.55989e-014 -2.54444e-014
lhumerus -44.9481 -31.5289 117.074
lradius 58.9395
lwrist 12.0058
lhand -5.01569 -4.49983
lfingers 7.12502
lthumb 20.7783 24.4077
rfemur -53.7605 2.22653 -0.491125
rtibia 45.5139
rfoot 13.3695 9.14308
rtoes -27.3187
lfemur -27.8863 -9.72688 -23.3002
ltibia 62.7368
lfoot -28.0681 5.13391
ltoes -3.89343
520
root 6.49246 15.8489 -4.67314 -171.067 64.1262 -176.833
lowerback 10.1851 0.609226 1.14317
upperback 2.77579 1.39293 5.48356
thorax -2.93247 0.807524 4.90131
lowerneck -7.16617 -14.8648 -5.97665
upperneck 12.8263 -19.77 3.95274
head 6.03717 -9.60235 0.561383
rclavicle 1.31198e-014 8.90555e-014
rhumerus 8.71769 19.9844 -67.7
rradius 133.421
rwrist -47.5623
rhand 4.80813 -12.53
rfingers 7.12502
rthumb 30.1869 -760.083
lclavicle 1.31198e-014 8.90555e-014
lhumerus -44.7793 -31.0529 116.801
lradius 59.2316
lwrist 12.99
lhand -6.65544 -4.9154
lfingers 7.12502
lthumb 19.2022 24.1566
rfemur -52.8752 2.19632 -1.15861
rtibia 44.5205
rfoot 13.5501 9.23827
rtoes -28.3079
lfemur -28.3069 -9.08236 -23.2245
ltibia 64.1878
lfoot -28.142 5.25649
ltoes -4.48991
521
root 6.55745 15.7825 -4.61738 -171.522 62.9265 -177.046
lowerback 10.5222 0.642072 1.36481
upperback 3.0694 1.50713 5.74334
thorax -2.82308 0.876819 5.03426
lowerneck -7.00092 -15.0643 -6.1146
upperneck 12.8115 -20.0443 4.11122
head 6.04949 -9.73174 0.608515
rclavicle -4.8901e-014 -4.77083e-014
rhumerus 10.2149 18.0708 -68.6555
rradius 134.161
rwrist -47.3921
rhand -0.835989 -13.6915
rfingers 7.12502
rthumb 24.7894 -762.105
lclavicle -4.8901e-014 -4.77083e-014
lhumerus -44.6099 -30.5732 116.506
lradius 59.5068
lwrist 13.9597
lhand -8.30987 -5.32657
lfingers 7.12502
lthumb 17.6107 23.8959
rfemur -51.9565 2.27369 -1.84223
rtibia 43.6984
rfoot 13.7811 9.37784
rtoes -29.2648
lfemur -28.6343 -8.40563 -23.1512
ltibia 65.6302
lfoot -28.2837 5.31849
ltoes -5.02863
522
root 6.62514 15.711 -4.56109 -172.063 61.8002 -177.298
lowerback 10.8796 0.69292 1.53867
upperback 3.38034 1.64313 5.9916
thorax -2.70882 0.958207 5.17943
lowerneck -6.81529 -15.2576 -6.24578
upperneck 12.81 -20.3136 4.28264
head 6.06399 -9.85745 0.659759
rclavicle -5.28767e-014 1.43125e-014
rhumerus 11.5581 16.3597 -69.7309
rradius 134.8
rwrist -47.2126
rhand -6.01292 -15.1729
rfingers 7.12502
rthumb 19.8199 -764.182
lclavicle -5.28767e-014 1.43125e-014
lhumerus -44.4433 -30.0809 116.183
lradius 59.7587
lwrist 14.8922
lhand -9.95186 -5.72647
lfingers 7.12502
lthumb 16.03 23.6304
rfemur -51.0452 2.41967 -2.52814
rtibia 43.0757
rfoot 14.0254 9.57618
rtoes -30.3011
lfemur -28.8864 -7.72191 -23.0767
ltibia 67.0566
lfoot -28.5115 5.32252
ltoes -5.53353
